Coordinates
version=1
nRows=8
nColumns=42
inDegrees=yes

Units are S.I. units (second, meters, Newtons, ...)
If the header above contains a line with 'inDegrees', this indicates whether rotational values are in degrees (yes) or radians (no).

endheader
time	pelvis_tilt	pelvis_list	pelvis_rotation	pelvis_tx	pelvis_ty	pelvis_tz	hip_flexion_r	hip_adduction_r	hip_rotation_r	knee_angle_r	knee_angle_r_beta	ankle_angle_r	subtalar_angle_r	mtp_angle_r	hip_flexion_l	hip_adduction_l	hip_rotation_l	knee_angle_l	knee_angle_l_beta	ankle_angle_l	subtalar_angle_l	mtp_angle_l	lumbar_extension	lumbar_bending	lumbar_rotation	sh_tx_r	sh_ty_r	sh_tz_r	sh_plane_elev_r	sh_elev_r	sh_axial_rot_r	elbow_flex_r	pro_sup_r	sh_tx_l	sh_ty_l	sh_tz_l	sh_plane_elev_l	sh_elev_l	sh_axial_rot_l	elbow_flex_l	pro_sup_l
      9.06779660	     -9.52881785	     -0.17119125	      1.90380194	      0.27639320	      0.92315805	     -0.05697326	      7.05960788	     -7.47846970	    -10.27329435	      2.76449808	      0.04824959	      4.92632297	      3.43467703	     -7.49999987	      7.21765538	     -2.54031755	     -6.33664764	      1.96522190	      0.03429959	     10.01538386	      3.56933869	     -7.49999987	      6.14473150	      5.41704059	      0.44302577	     -0.00663470	      0.00885946	     -0.00586918	      1.10114731	      7.51950733	     12.57722105	     21.57100147	     98.99060842	     -0.01196817	      0.01370975	     -0.00563342	     14.14951142	     46.56503594	    -25.56441053	     18.46374759	     17.55396675
      9.08474580	     -9.27270407	     -0.17682883	      1.97884288	      0.27702581	      0.92379611	     -0.05654556	      6.40188533	     -7.37304323	    -10.10076034	      2.08771729	      0.03643754	      4.67636025	      3.25764332	     -7.49999987	      6.66734117	     -2.53158407	     -6.09833250	      1.42577080	      0.02488439	      9.88423365	      3.61965005	     -7.49999987	      5.68076808	      5.19327109	     -0.26205154	     -0.00647916	      0.00781093	     -0.00644776	      4.12427354	      7.42469577	      7.64618929	     20.74902353	    108.79144216	     -0.01726710	      0.01190130	     -0.00619576	     14.89083803	     46.06270436	    -28.68200346	     17.10315919	     10.66096827
      9.10169490	     -9.28215907	     -0.25680923	      1.99239228	      0.28110875	      0.92361298	     -0.05253927	      6.35861737	     -7.20132140	    -10.06596378	      2.09668016	      0.03659397	      4.72676947	      3.26711674	     -7.49999987	      6.62729932	     -2.71651568	     -5.98473455	      1.45328770	      0.02536466	      9.87424193	      3.68327133	     -7.49999987	      5.52294091	      4.93617319	     -0.10274903	     -0.00809667	      0.00701168	     -0.00644180	      4.13104940	      7.09752561	      7.65096339	     20.76204894	    108.79047927	     -0.01809528	      0.01165537	     -0.00625603	     14.76923315	     45.48312278	    -28.71543200	     16.88505358	     10.64350884
      9.11864410	     -9.30385748	     -0.30933153	      1.96270206	      0.28077370	      0.92352294	     -0.05232717	      6.59877817	     -7.11937633	    -10.21248090	      2.67194389	      0.04663422	      5.09156675	      3.31668466	     -7.49999987	      6.85147747	     -2.87179308	     -6.10548407	      2.01250941	      0.03512492	     10.22895435	      3.79860497	     -7.49999987	      5.90386154	      4.85033724	     -1.25623649	     -0.00424039	      0.00738165	     -0.00579487	      5.01028297	      6.77881324	      8.75300907	     20.62472074	    100.62974934	     -0.01164228	      0.01414029	     -0.00533612	      9.83024536	     43.37951746	    -34.44013534	     21.46043580	     18.68004153
      9.13559320	     -8.90594092	     -0.35007022	      1.97961213	      0.28105277	      0.92389101	     -0.05276347	      5.80959031	     -6.94645274	    -10.40582723	      2.13918909	      0.03733589	      4.98909391	      3.62961319	     -7.49999987	      6.05782484	     -2.96781098	     -6.07388889	      1.44944137	      0.02529752	     10.05915494	      3.99829746	     -7.49999987	      5.52204190	      4.83648773	     -1.58664091	     -0.00390199	      0.00668670	     -0.00638644	      6.10796816	      6.73790107	      7.31563828	     20.15381212	    106.30472336	     -0.01510279	      0.01367627	     -0.00579295	      9.38813801	     42.41723402	    -33.92654544	     22.82338583	     15.16792496
      9.15254240	     -8.86498779	     -0.33066294	      1.93471876	      0.27676131	      0.92414605	     -0.05660458	      5.81521617	     -6.96114235	    -10.39169491	      2.23870259	      0.03907273	      5.02286767	      3.57614030	     -7.49999987	      6.02025346	     -2.98295574	     -6.05675073	      1.42270275	      0.02483085	     10.06962276	      4.02134004	     -7.49999987	      5.61550211	      4.71783915	     -1.80774658	     -0.00221599	      0.00604223	     -0.00630385	      6.09598164	      6.84860871	      7.32688545	     20.16596392	    106.31890664	     -0.01578105	      0.01279072	     -0.00599456	      9.65387020	     41.71331602	    -33.86175974	     22.93205766	     15.18804896
      9.16949150	     -8.90275482	     -0.37941907	      1.96851269	      0.28099082	      0.92088169	     -0.05251333	      5.87201892	     -6.87175077	    -10.43069160	      2.38700461	      0.04166109	      5.24357477	      3.55002327	     -7.49999987	      6.05272847	     -3.08302567	     -6.01668218	      1.42510551	      0.02487278	     10.17359883	      4.17963799	     -7.49999987	      5.68658185	      4.53106231	     -2.17638740	     -0.00139703	      0.00583179	     -0.00627092	      6.58559201	      6.72816366	      7.88056693	     20.23384173	    104.29283822	     -0.01326487	      0.01180019	     -0.00543793	      7.11185504	     40.26099529	    -36.33389463	     25.70621906	     18.07958099
      9.18644070	     -8.88499417	     -0.34013719	      1.96013501	      0.27677215	      0.92442780	     -0.05666938	      5.93374903	     -6.95365713	    -10.40186435	      2.49761343	      0.04359158	      5.24019502	      3.48907890	     -7.49999987	      6.07902726	     -3.04231448	     -6.01349842	      1.41115609	      0.02462932	     10.13961767	      4.18511048	     -7.49999987	      5.70956679	      4.36764722	     -2.60832363	      0.00108623	      0.00470925	     -0.00609262	      6.63472416	      6.71546508	      7.94074265	     20.23824903	    104.33936842	     -0.01446032	      0.01151790	     -0.00550054	      7.69165972	     38.75731871	    -36.14048185	     25.90724983	     18.12188963
